Coordinates
version=1
nRows=5
nColumns=40
inDegrees=yes

Units are S.I. units (second, meters, Newtons, ...)
If the header above contains a line with 'inDegrees', this indicates whether rotational values are in degrees (yes) or radians (no).

endheader
time	pelvis_tilt	pelvis_list	pelvis_rotation	pelvis_tx	pelvis_ty	pelvis_tz	hip_flexion_r	hip_adduction_r	hip_rotation_r	knee_angle_r	knee_angle_r_beta	ankle_angle_r	subtalar_angle_r	mtp_angle_r	hip_flexion_l	hip_adduction_l	hip_rotation_l	knee_angle_l	knee_angle_l_beta	ankle_angle_l	subtalar_angle_l	mtp_angle_l	lumbar_extension	lumbar_bending	lumbar_rotation	arm_flex_r	arm_add_r	arm_rot_r	elbow_flex_r	pro_sup_r	wrist_flex_r	wrist_dev_r	arm_flex_l	arm_add_l	arm_rot_l	elbow_flex_l	pro_sup_l	wrist_flex_l	wrist_dev_l
      0.00000000	     16.75161295	      4.83696919	      5.69939929	     -0.00714785	      0.96231474	     -0.32054782	      8.74846276	     -6.27831104	    -12.08430420	     16.31938666	      0.28482703	    -11.89084049	      0.00000000	      0.00000000	    -29.20564981	      5.18780109	      6.02896991	      7.26903937	      0.12686867	     -2.75601997	      0.00000000	      0.00000000	    -32.26214352	     -2.43239984	     -9.77893240	     -1.17407684	    -15.20800285	      1.44305297	     39.91099196	     72.99272195	      0.00000000	      0.00000000	     14.03441049	    -28.10264342	     28.50502890	     58.12787312	     74.67872355	      0.00000000	      0.00000000
      0.00400000	     16.60813067	      4.89885744	      5.57625351	     -0.00292848	      0.96109386	     -0.32050530	      9.33597882	     -6.28784004	    -12.22208538	     15.92293215	      0.27790759	    -11.77729159	      0.00000000	      0.00000000	    -29.30533207	      5.29461555	      5.95663285	      7.33863122	      0.12808328	     -2.70012614	      0.00000000	      0.00000000	    -32.23084869	     -2.50452022	     -9.77105075	     -1.05358527	    -15.23435139	      1.44615584	     39.92056150	     72.99579685	      0.00000000	      0.00000000	     14.24183260	    -28.10703186	     28.46123946	     58.22144559	     74.68176154	      0.00000000	      0.00000000
      0.00800000	     16.32563417	      4.92814139	      5.41961613	      0.00186485	      0.95975549	     -0.31993299	      9.62475031	     -6.04802748	    -11.56022889	     14.53897674	      0.25375301	    -12.36521060	      0.00000000	      0.00000000	    -29.23149774	      5.36951217	      5.73644241	      7.57942563	      0.13228593	     -2.28171003	      0.00000000	      0.00000000	    -31.96864481	     -2.65518258	     -9.68510018	     -1.01995077	    -15.10731135	      1.42321557	     39.69636376	     73.00139156	      0.00000000	      0.00000000	     14.34760605	    -28.16828257	     28.54077418	     58.31792659	     74.77149199	      0.00000000	      0.00000000
      0.01200000	     16.15491944	      5.04093692	      5.32667524	      0.00619790	      0.95845622	     -0.32007802	     10.01813269	     -6.05326084	    -11.33313898	     13.77315705	      0.24038694	    -12.49661950	      0.00000000	      0.00000000	    -29.25557175	      5.52217917	      5.64664798	      7.80778423	      0.13627154	     -2.05268664	      0.00000000	      0.00000000	    -31.88383826	     -2.74433605	     -9.74521621	     -1.18749152	    -15.19035677	      1.69011698	     40.18985849	     72.84893207	      0.00000000	      0.00000000	     14.47769219	    -28.19556792	     28.53435997	     58.43659439	     74.79716518	      0.00000000	      0.00000000
      0.01600000	     15.98115716	      5.04992949	      5.24253342	      0.01069091	      0.95721148	     -0.31974867	     10.31974668	     -5.87873516	    -10.91357661	     12.81410862	      0.22364839	    -12.85207595	      0.00000000	      0.00000000	    -29.25135742	      5.54075895	      5.54719775	      8.08175808	      0.14105329	     -1.72978581	      0.00000000	      0.00000000	    -31.78528679	     -2.78991906	     -9.69459601	     -1.08401725	    -15.09977263	      1.56331480	     40.03067943	     72.55170954	      0.00000000	      0.00000000	     14.65693069	    -28.22844952	     28.58871216	     58.51085364	     74.85006954	      0.00000000	      0.00000000
